<svg viewBox="0 0 312 312" fill="none" xmlns="http://www.w3.org/2000/svg"><path d="M301.458 168.568c.679 1.708 1.892 2.697 3.699 2.921 1.419.176 2.644-.196 3.643-1.068.998-.872 1.613-2.236 1.843-4.094l.982-7.922-18.371-2.277-1.027 8.283c-.243 1.961.033 3.541.831 4.714.797 1.173 1.994 1.871 3.62 2.073.981.121 1.893-.054 2.731-.474.841-.446 1.508-1.175 2.049-2.156zm6.834-2.716c-.128 1.032-.456 1.777-.991 2.287-.535.51-1.215.714-2.041.612-1.909-.237-2.73-1.439-2.464-3.58l.617-4.98 5.496.681-.617 4.98zm-13.007-6.669l5.832.723-.666 5.367c-.287 2.322-1.415 3.388-3.376 3.145-.929-.115-1.613-.515-2.03-1.169-.439-.683-.566-1.563-.425-2.699l.665-5.367zM289.976 180.942c-.604 2.261-.477 4.206.412 5.815.896 1.585 2.454 2.701 4.715 3.304l11.204 2.991.718-2.688-11.229-2.997c-1.558-.416-2.606-1.126-3.177-2.113-.596-.993-.671-2.224-.282-3.681.396-1.482 1.074-2.512 2.086-3.076.986-.571 2.243-.64 3.8-.224l11.229 2.997.717-2.688-11.203-2.99c-2.261-.604-4.162-.438-5.735.514-1.566.928-2.645 2.55-3.255 4.836zM298.38 206.634c-1.116-1.588-2.223-3.059-3.302-4.463.184-.037.426-.077.726-.122.3-.044.658-.093 1.074-.146.416-.053.784-.126 1.107-.16 1.186-.213 2.038-.367 2.57-.428l4.538-.765 1.204-2.907-12.977 2.252-6.823-2.826-1.054 2.546 6.822 2.826 7.595 10.744 1.184-2.859-2.664-3.692zM280.893 230.824c-1.174-1.718-2.302-3.277-3.375-4.734 1.454.421 3.237.915 5.365 1.461l10.24 2.578 2.218-3.145-15.128-10.67-1.543 2.189 4.738 3.342c3.378 2.382 5.937 4.123 7.666 5.28-1.317-.389-2.764-.773-4.326-1.175l-11.345-2.815-1.349 1.912 6.49 9.7c1.034 1.556 1.903 2.805 2.607 3.747-1.655-1.262-4.211-3.097-7.61-5.495l-4.738-3.341-1.544 2.188 15.128 10.67 2.233-3.166-5.727-8.526zM272.702 257.686l8.817-9.834-13.783-12.357-8.765 9.776 1.858 1.666 6.908-7.705 4.356 3.905-6.3 7.028 1.819 1.631 6.3-7.027 3.892 3.488-6.96 7.763 1.858 1.666zM250.381 271.673c-2.496-3.328-4.373-5.788-5.684-7.405 1.628.697 3.786 1.581 6.479 2.615l9.958 3.744 2.559-1.918-11.107-14.81-2.164 1.622 3.37 4.493c2.48 3.307 4.378 5.751 5.668 7.384-1.409-.665-3.572-1.513-6.464-2.595l-9.937-3.759-2.558 1.918 11.107 14.81 2.142-1.607-3.369-4.492zM230.893 269.951c-2.377 1.288-3.876 3.106-4.484 5.476-.597 2.335-.214 4.789 1.162 7.326 1.363 2.515 3.209 4.175 5.516 4.995 2.306.761 4.647.498 7.024-.791 2.423-1.313 3.922-3.131 4.497-5.454.596-2.393.212-4.846-1.151-7.361-1.388-2.56-3.222-4.198-5.527-4.959-2.272-.809-4.614-.546-7.037.768zm1.19 2.194c1.646-.892 3.281-1.039 4.861-.417 1.613.575 2.923 1.847 3.976 3.79 1.041 1.92 1.391 3.711 1.017 5.422-.376 1.653-1.369 2.931-3.015 3.823-1.623.879-3.236 1.014-4.848.439-1.58-.622-2.913-1.881-3.966-3.824-1.066-1.966-1.393-3.77-1.028-5.387.364-1.676 1.357-2.954 3.003-3.846zM207.619 293.192c-.186-3.135-.339-5.488-.452-7.035 2.219 3.603 3.469 5.632 3.711 6.046l4.676 7.265 2.823-.904-.417-8.63c-.019-.485-.181-2.864-.493-7.077.807 1.325 2.049 3.329 3.72 5.988l4.717 7.308 2.748-.881-10.6-16.043-2.971.952.413 8.959c.087 1.72.225 3.942.424 6.608-1.387-2.286-2.541-4.182-3.494-5.624l-4.87-7.531-2.972.952.696 19.215 2.749-.88-.408-8.688zM182.091 309.301l-3.54-4.054c-1.331-1.524-2.377-2.702-3.137-3.509l14.706-1.023-.171-2.464-14.707 1.023c.521-.766 1.394-2.078 2.62-3.936l2.944-4.505-3.32.231-6.335 9.719 7.62 8.749 3.32-.231zM144.42 301.521c-1.703.692-2.683 1.913-2.893 3.721-.165 1.421.217 2.643 1.096 3.635.88.992 2.249 1.596 4.109 1.812l7.928.921 2.136-18.389-8.29-.962c-1.963-.228-3.541.059-4.708.866-1.166.807-1.856 2.009-2.045 3.637-.114.981.068 1.892.495 2.727.452.838 1.187 1.499 2.172 2.032zm2.768 6.813c-1.033-.12-1.781-.443-2.295-.973-.514-.531-.723-1.21-.627-2.036.222-1.912 1.418-2.741 3.561-2.492l4.985.579-.639 5.501-4.985-.579zm6.569-13.058l-.678 5.837-5.372-.624c-2.325-.27-3.399-1.389-3.171-3.352.108-.93.502-1.617 1.153-2.038.68-.445 1.559-.578 2.696-.446l5.372.623zM132.396 290.15c-2.267-.578-4.21-.429-5.81.479-1.574.913-2.672 2.485-3.25 4.752l-2.862 11.237 2.696.687 2.869-11.262c.398-1.562 1.096-2.618 2.076-3.2.987-.608 2.217-.697 3.678-.325 1.487.379 2.524 1.046 3.1 2.051.582.98.664 2.235.266 3.798l-2.869 11.262 2.696.687 2.863-11.237c.578-2.268.391-4.167-.58-5.729-.945-1.555-2.58-2.616-4.873-3.2zM106.591 298.728c1.579-1.127 3.043-2.245 4.438-3.335.038.184.08.425.127.725s.099.657.155 1.073c.056.415.131.782.168 1.106.222 1.184.382 2.034.447 2.566l.799 4.532 2.916 1.182-2.349-12.96 2.775-6.843-2.554-1.035-2.775 6.843-10.687 7.675 2.868 1.162 3.672-2.691zM82.3808 281.47c1.7102-1.186 3.2609-2.325 4.7095-3.408-.4099 1.456-.891 3.243-1.4218 5.375l-2.5025 10.259 3.1607 2.195 10.5587-15.206-2.1996-1.527-3.3071 4.762c-2.3579 3.396-4.0799 5.967-5.2236 7.705.3784-1.32.7521-2.77 1.1424-4.335l2.7327-11.365-1.9221-1.335-9.652 6.561c-1.5488 1.045-2.7916 1.923-3.7282 2.634 1.2504-1.664 3.0662-4.234 5.4389-7.651l3.3071-4.762-2.1997-1.527-10.5588 15.205 3.1821 2.21 8.4833-5.79zM55.4778 273.498l9.8983 8.745 12.2568-13.874-9.8399-8.693-1.6526 1.871 7.755 6.851-3.8733 4.384-7.073-6.249-1.6182 1.832 7.073 6.249-3.4601 3.916-7.8134-6.903-1.6526 1.871zM41.4838 251.459c3.3005-2.532 5.7394-4.436 7.3422-5.764-.679 1.635-1.5393 3.802-2.5446 6.507l-3.6348 9.999 1.9466 2.537 14.6873-11.269-1.646-2.145-4.4557 3.419c-3.2799 2.516-5.703 4.441-7.3215 5.748.6501-1.416 1.474-3.589 2.5239-6.492l3.6507-9.977-1.9467-2.538-14.6872 11.269 1.6301 2.125 4.4557-3.419zM42.9476 231.885c-1.306-2.367-3.135-3.853-5.5096-4.443-2.3392-.58-4.79-.179-7.3171 1.215-2.5042 1.382-4.1513 3.241-4.9537 5.554-.7444 2.311-.4635 4.65.8426 7.018 1.3312 2.413 3.1601 3.898 5.4868 4.456 2.3974.578 4.8482.176 7.3524-1.205 2.5498-1.407 4.1741-3.253 4.9185-5.564.7922-2.278.5113-4.617-.8199-7.031zm-2.1855 1.206c.9042 1.639 1.0634 3.274.4526 4.858-.563 1.617-1.8246 2.936-3.7597 4.004-1.9123 1.055-3.7013 1.418-5.415 1.057-1.6555-.364-2.9405-1.348-3.8447-2.987-.8916-1.616-1.0383-3.228-.4754-4.845.6109-1.584 1.8599-2.926 3.795-3.994 1.9579-1.08 3.7595-1.42 5.3797-1.067 1.6783.351 2.9633 1.335 3.8675 2.974zM19.498 208.765c3.1334-.209 5.4856-.38 7.0319-.505-3.5859 2.246-5.6056 3.512-6.0177 3.757l-7.2304 4.73.9256 2.816 8.6269-.482c.4852-.023 2.8621-.202 7.0732-.546-1.319.816-3.3139 2.074-5.9602 3.765l-7.2717 4.772.9013 2.741 15.9624-10.721-.9743-2.964-8.9558.481c-1.7188.1-3.9394.255-6.6042.474 2.2751-1.405 4.1628-2.572 5.5974-3.537l7.4943-4.926-.9743-2.964-19.21004.841.90124 2.741 8.6844-.473zM3.19299 183.572l4.02676-3.571c1.51303-1.342 2.68317-2.398 3.48455-3.164l1.1361 14.698 2.4627-.19-1.1362-14.698c.7699.514 2.0884 1.377 3.9553 2.589l4.5277 2.909-.2565-3.318-9.7675-6.26-8.6894 7.687.25649 3.318zM10.6065 146.07c-.70515-1.698-1.9338-2.668-3.74321-2.864-1.42167-.154-2.64089.237-3.62618 1.124-.98529.887-1.57877 2.261-1.78045 4.122l-.8599 7.935 18.40424 1.995.8991-8.298c.2129-1.964-.0871-3.54-.9028-4.7-.8157-1.161-2.0235-1.841-3.652-2.018-.9822-.106-1.8919.083-2.7234.516-.8342.459-1.4897 1.199-2.0154 2.188zm-6.79136 2.82c.11204-1.034.4287-1.784.9556-2.302.5269-.518 1.20393-.733 2.03109-.643 1.9128.207 2.75156 1.397 2.51907 3.542l-.54059 4.989-5.50577-.597.5406-4.989zm13.10746 6.468l-5.8418-.633.5827-5.376c.252-2.327 1.3631-3.409 3.3276-3.197.9306.101 1.6207.49 2.0474 1.138.4498.676.59 1.554.4668 2.692l-.5827 5.376zM21.8111 133.964c.5604-2.271.3967-4.213-.5226-5.806-.9256-1.567-2.5055-2.653-4.7774-3.213l-11.25852-2.778-.66629 2.701L15.87 127.652c1.5651.386 2.6267 1.076 3.2162 2.052.6147.982.7132 2.211.352 3.675-.3674 1.49-1.0262 2.532-2.0271 3.115-.9755.59-2.2301.682-3.7952.296l-11.28378-2.783-.66629 2.701 11.25847 2.777c2.2719.56 4.1694.359 5.7239-.624 1.5483-.957 2.5962-2.599 3.1629-4.897zM13.0587 107.965c1.139 1.571 2.268 3.026 3.3679 4.413-.1834.04-.4247.084-.7239.133-.2992.049-.6563.103-1.0714.162-.415.059-.7817.137-1.1051.177-1.1823.23-2.0315.397-2.5624.466l-4.52645.833-1.16022 2.925 12.94207-2.446 6.8636 2.723 1.0164-2.562-6.8636-2.723-7.7547-10.629-1.141 2.876 2.7188 3.652zM30.1697 83.4529c1.1989 1.7015 2.3493 3.2437 3.4431 4.6843-1.4593-.3992-3.2496-.8671-5.3854-1.3824l-10.2771-2.4273-2.1716 3.1766L31.061 97.9513l1.5113-2.2107-4.7864-3.2721c-3.4128-2.333-5.9963-4.0362-7.7428-5.1671 1.3226.3687 2.7751.7318 4.3429 1.1106l11.3851 2.6494 1.3205-1.9317-6.631-9.6037c-1.0566-1.5412-1.9436-2.7775-2.6612-3.7089 1.6731 1.2382 4.2556 3.0351 7.6898 5.3828l4.7865 3.2721 1.5113-2.2108L26.5047 71.814l-2.1863 3.1981 5.8513 8.4408zM37.8318 56.5925l-8.6728 9.9617 13.9619 12.1555 8.6216-9.9028L49.86 67.168l-6.7948 7.8045-4.4122-3.8412 6.1973-7.1183-1.8433-1.6048-6.1973 7.1183-3.9415-3.4316 6.8461-7.8634-1.8825-1.639zM59.5737 42.514c2.5563 3.2819 4.478 5.7069 5.8177 7.3-1.6401-.6671-3.8138-1.5116-6.5258-2.4971L48.841 43.755l-2.523 1.9652 11.3753 14.6046 2.1333-1.6615-3.451-4.4307c-2.5402-3.2614-4.4825-5.6704-5.8016-7.2794 1.4211.6398 3.5994 1.4478 6.5098 2.4765l10.0041 3.5779 2.523-1.9652-11.3753-14.6046-2.1128 1.6456 3.4509 4.4306zM79.4448 43.5896c2.3579-1.3235 3.8297-3.1633 4.4027-5.5422.563-2.3435.1431-4.7913-1.2695-7.3079-1.3998-2.494-3.2707-4.1273-5.5899-4.9126-2.3164-.7273-4.6536-.4292-7.0115.8943-2.4033 1.349-3.8752 3.1889-4.4155 5.5196-.5602 2.4016-.1404 4.8493 1.2595 7.3433 1.4253 2.5393 3.2835 4.15 5.5999 4.8772 2.2838.7754 4.621.4773 7.0243-.8717zm-1.2217-2.1765c-1.6325.9163-3.2656 1.0876-4.8542.4884-1.6212-.551-2.9499-1.8028-4.0317-3.73-1.0689-1.9045-1.4455-3.6908-1.0969-5.407.3513-1.6582 1.3255-2.9504 2.958-3.8667 1.6097-.9036 3.2202-1.0621 4.8414-.5111 1.5885.5991 2.94 1.8382 4.0217 3.7654 1.0944 1.9498 1.4483 3.7489 1.1069 5.3716-.3386 1.6809-1.3128 2.9731-2.9452 3.8894zM101.527 20.2695c.244 3.1309.442 5.481.584 7.0257-2.2861-3.5603-3.5748-5.5655-3.8244-5.9748l-4.8119-7.1765-2.8051.9574.5796 8.6209c.0281.4849.2342 2.8596.626 7.0665-.8316-1.3096-2.1119-3.2902-3.8327-5.9172l-4.8533-7.2172-2.7313.9321 10.9006 15.8402 2.9528-1.0077-.582-8.9498c-.1191-1.7175-.2994-3.9362-.5486-6.5984 1.4303 2.2591 2.6195 4.1334 3.5998 5.5571l5.0115 7.4381 2.952-1.0077-1.058-19.1994-2.731.9322.572 8.6785zM127.3 3.44466l3.602 3.99914c1.354 1.50264 2.418 2.6646 3.19 3.46l-14.689 1.2494.21 2.4611 14.689-1.2493c-.508.7738-1.361 2.0988-2.559 3.9751l-2.874 4.55 3.316-.2821 6.184-9.8154-7.753-8.62998-3.316.28204zM164.764 10.5218c1.693-.71828 2.653-1.95436 2.835-3.76522.143-1.42282-.257-2.63899-1.152-3.61743-.894-.97844-2.273-1.56133-4.135-1.74868L154.37.59164l-1.853 18.41906 8.304.8353c1.966.1977 3.539-.1144 4.694-.939 1.154-.8246 1.825-2.0376 1.989-3.6674.099-.983-.097-1.8912-.537-2.7193-.465-.8308-1.21-1.4805-2.203-1.9985zm-2.873-6.76955c1.035.10408 1.788.41497 2.31.93786.522.5229.742 1.19826.658 2.02608-.192 1.91434-1.375 2.76223-3.522 2.54626l-4.993-.5022.554-5.5102 4.993.5022zm-6.366 13.15685l.588-5.8465 5.38.5413c2.329.2341 3.42 1.3369 3.222 3.303-.094.9313-.477 1.6244-1.121 2.0561-.673.4549-1.55.6018-2.689.4874l-5.38-.5413zM177.084 21.6191c2.277.5432 4.217.3647 5.802-.5668 1.561-.9374 2.635-2.5255 3.178-4.8016l2.691-11.27936-2.706-.64572-2.697 11.30458c-.374 1.568-1.057 2.6348-2.028 3.2317-.977.6222-2.205.73-3.672.38-1.492-.3561-2.54-1.007-3.131-2.0033-.597-.9711-.698-2.225-.324-3.7929l2.697-11.30466-2.706-.64572-2.691 11.27928c-.543 2.2761-.328 4.172.667 5.719.968 1.5409 2.619 2.5764 4.92 3.1255zM203.229 12.7208l3.631-2.74608 2.885 1.11948-10.571 7.8341-2.672 6.8837-2.569-.9971 2.672-6.8838-2.543-12.92341 2.933 1.13828.868 4.52003c.095.5205.257 1.3735.485 2.5589.061.3212.123.6892.185 1.1038.078.4208.135.7775.17 1.0701.058.2827.104.5236.138.7228 1.382-1.1183 2.845-2.2519 4.388-3.4008zM227.122 29.1904c-1.688 1.2176-3.218 2.3848-4.646 3.4943.383-1.4636.831-3.2588 1.323-5.4002l2.314-10.3032-3.2-2.1366-10.279 15.3962 2.228 1.487 3.219-4.8222c2.295-3.4381 3.97-6.0403 5.082-7.799-.355 1.3266-.702 2.783-1.063 4.3548l-2.524 11.4135 1.946 1.2993 9.53-6.7361c1.529-1.0735 2.756-1.9741 3.679-2.7018-1.219 1.6866-2.988 4.2886-5.298 7.7485l-3.219 4.8221 2.227 1.4869 10.279-15.3961-3.222-2.1511-8.376 5.9437zM254.861 37.1718l-10.025-8.6001-12.053 14.0501 9.965 8.5493 1.625-1.8944-7.854-6.7379 3.81-4.4399 7.163 6.1453 1.591-1.8549-7.163-6.1454 3.403-3.9663 7.913 6.7886 1.625-1.8944zM269.298 58.3057c-3.263 2.5801-5.674 4.5194-7.257 5.8707.655-1.6449 1.484-3.8247 2.449-6.5439l3.489-10.0503-1.983-2.5086-14.522 11.4815 1.677 2.1211 4.406-3.4831c3.243-2.564 5.637-4.5238 7.237-5.8546-.63 1.4257-1.422 3.6098-2.429 6.5277l-3.505 10.0299 1.983 2.5086 14.522-11.4815-1.661-2.1007-4.406 3.4832zM267.727 78.0573c1.35 2.3431 3.206 3.7945 5.591 4.3411 2.349.537 4.792.0902 7.293-1.3502 2.479-1.4273 4.091-3.3162 4.851-5.6439.701-2.3243.377-4.6581-.972-7.0012-1.376-2.3883-3.232-3.8396-5.568-4.3542-2.408-.5336-4.851-.0867-7.329 1.3407-2.524 1.4533-4.113 3.3291-4.815 5.6534-.75 2.2923-.426 4.626.949 7.0143zm2.163-1.2457c-.934-1.6222-1.123-3.2534-.542-4.8485.533-1.6272 1.77-2.9697 3.685-4.0727 1.893-1.0899 3.675-1.4862 5.395-1.1566 1.662.3329 2.965 1.2928 3.899 2.915.921 1.5996 1.098 3.2083.565 4.8354-.582 1.5951-1.806 2.9602-3.721 4.0631-1.938 1.116-3.733 1.4897-5.359 1.1663-1.685-.32-2.988-1.2799-3.922-2.902zM291.696 100.846c-3.129.268-5.477.484-7.021.638 3.543-2.3134 5.539-3.6172 5.946-3.8698l7.14-4.8658-.978-2.7978-8.617.6444c-.484.0318-2.857.2557-7.061.6792 1.303-.8414 3.274-2.1366 5.888-3.8771l7.181-4.9075-.953-2.7242-15.758 11.0195 1.03 2.9451 8.945-.6492c1.717-.1321 3.934-.3291 6.594-.5984-2.248 1.4473-4.113 2.6506-5.529 3.6416l-7.401 5.067 1.03 2.945 19.191-1.202-.953-2.725-8.674.637zM308.614 126.318l-3.971 3.632c-1.492 1.366-2.646 2.439-3.436 3.218l-1.362-14.679-2.459.228 1.362 14.679c-.778-.502-2.109-1.345-3.995-2.528l-4.572-2.839.308 3.313 9.863 6.109 8.57-7.819-.308-3.314z" fill="#fff"></path></svg>