<?xml version="1.0" encoding="utf-8"?>
<!-- Generator: Adobe Illustrator 26.3.1, SVG Export Plug-In . SVG Version: 6.00 Build 0)  -->
<svg version="1.1" id="Capa_1" xmlns="http://www.w3.org/2000/svg" xmlns:xlink="http://www.w3.org/1999/xlink" x="0px" y="0px"
	 viewBox="0 0 1000 500" style="enable-background:new 0 0 1000 500;" xml:space="preserve">
<style type="text/css">
	.st0{fill:#FFFFFF;}
</style>
<g>
	<g>
		<g>
			<path class="st0" d="M38.59,290.54c-1.17-13.01,3.75-24.66,10.35-35.44c0.02,0.02,0.03,0.03,0.05,0.05
				c-2.62,36.93,42.26,101.66,41.31,98.06c-7.32-27.61,14.53-87.33,20.87-91.08c8.7,12.11,8.03,44.04,8.03,44.04
				s59.58-42.06,22.83-113.72c5.09,28.49-9.03,53.92-14.03,60.35c-1.32-9.4-3.83-19.35-8.53-25.89l-5.45-7.58
				c0,0-26.32,12.02-33.48,70.62c-26.04-19.88-33.85-79.97-33.85-79.97s-7.94,4.34-10.88,18.39c-2.52-9.13-4.25-19.29-3.48-28.33
				c0.24-2.81,0.59-5.46,1.02-7.99c-5.87,9.34-9.91,21.33-11.2,36.38C19.66,257.48,38.88,293.76,38.59,290.54z"/>
		</g>
	</g>
</g>
<g>
	<path class="st0" d="M232.87,229.23v23.9h38.04v29.1h-38.04v53.01h-32.43l0.93-105.46h-27.57l15.37-29.65h27.48h16.21H284v29.1
		H232.87z"/>
	<path class="st0" d="M364.45,335.24v-0.21l-0.21,0.21v-0.21l-72.54-134.9h37.42l35.34,67.35l35.13-67.35h37.42l-72.54,134.9V335.24
		z"/>
	<path class="st0" d="M517.02,232.55v102.68h-32.43V232.55h-35.13v-32.43h102.68v32.43H517.02z"/>
	<path class="st0" d="M635.5,335.24v-0.21l-0.21,0.21v-0.21l-72.54-134.9h37.42l35.34,67.35l35.13-67.35h37.42l-72.54,134.9V335.24z
		"/>
	<path class="st0" d="M803.87,289.09l29.1,46.15H796.6l-28.27-43.03c-5.61,0-10.81,0-15.38,0v43.03h-32.43V200.13h32.43
		c3.95,0,12.89,0,32.22,0c33.26,0,48.23,25.36,48.23,46.15C833.39,261.45,825.28,281.61,803.87,289.09z M752.94,263.11h32.01
		c4.16,0,7.9-0.62,10.6-1.87c1.87-1.04,3.53-2.08,4.78-3.53c2.91-3.53,3.95-8.31,3.95-11.43c0-3.33-1.04-8.11-4.36-11.64
		c-3.12-3.74-7.9-5.4-14.76-5.4h-32.22V263.11z"/>
	<path class="st0" d="M939.82,316.32h-50.93l-9.77,18.92H841.7l72.75-135.11L987,335.24h-37.42L939.82,316.32z M926.72,290.96
		l-12.26-23.7l-12.47,23.7H926.72z"/>
</g>
</svg>
