<?xml version="1.0" encoding="utf-8"?>
<!-- Generator: Adobe Illustrator 26.3.1, SVG Export Plug-In . SVG Version: 6.00 Build 0)  -->
<svg version="1.1" id="Capa_1" xmlns="http://www.w3.org/2000/svg" xmlns:xlink="http://www.w3.org/1999/xlink" x="0px" y="0px"
	 viewBox="0 0 1000 188" style="enable-background:new 0 0 1000 188;" xml:space="preserve">
<style type="text/css">
	.st0{fill:#C12A46;}
</style>
<g>
	<g>
		<g>
			<path class="st0" d="M38.6,113.5c-1.2-13,3.8-24.7,10.4-35.4c0,0,0,0,0,0.1c-2.6,36.9,42.3,101.7,41.3,98.1
				c-7.3-27.6,14.5-87.3,20.9-91.1c8.7,12.1,8,44,8,44S178.8,87.1,142,15.5c5.1,28.5-9,53.9-14,60.3c-1.3-9.4-3.8-19.3-8.5-25.9
				l-5.4-7.6c0,0-26.3,12-33.5,70.6c-26-19.9-33.9-80-33.9-80s-7.9,4.3-10.9,18.4c-2.5-9.1-4.2-19.3-3.5-28.3c0.2-2.8,0.6-5.5,1-8
				c-5.9,9.3-9.9,21.3-11.2,36.4C19.7,80.5,38.9,116.8,38.6,113.5z"/>
		</g>
	</g>
</g>
<g>
	<path class="st0" d="M232.9,52.2v23.9h38v29.1h-38v53h-32.4l0.9-105.5h-27.6l15.4-29.6h27.5h16.2H284v29.1
		C284,52.2,232.9,52.2,232.9,52.2z"/>
	<path class="st0" d="M364.5,158.2V158l-0.2,0.2V158L291.7,23.1h37.4l35.3,67.3l35.1-67.3H437L364.5,158L364.5,158.2L364.5,158.2z"
		/>
	<path class="st0" d="M517,55.5v102.7h-32.4V55.5h-35.1V23.1h102.7v32.4L517,55.5L517,55.5z"/>
	<path class="st0" d="M635.5,158.2V158l-0.2,0.2V158L562.8,23.1h37.4l35.3,67.3l35.1-67.3h37.4L635.5,158L635.5,158.2L635.5,158.2z"
		/>
	<path class="st0" d="M803.9,112.1l29.1,46.1h-36.4l-28.3-43c-5.6,0-10.8,0-15.4,0v43h-32.4V23.1h32.4c4,0,12.9,0,32.2,0
		c33.3,0,48.2,25.4,48.2,46.2C833.4,84.4,825.3,104.6,803.9,112.1z M752.9,86.1h32c4.2,0,7.9-0.6,10.6-1.9c1.9-1,3.5-2.1,4.8-3.5
		c2.9-3.5,4-8.3,4-11.4c0-3.3-1-8.1-4.4-11.6c-3.1-3.7-7.9-5.4-14.8-5.4h-32.2L752.9,86.1L752.9,86.1z"/>
	<path class="st0" d="M939.8,139.3h-50.9l-9.8,18.9h-37.4l72.8-135.1L987,158.2h-37.4L939.8,139.3z M926.7,114l-12.3-23.7L902,114
		C902,114,926.7,114,926.7,114z"/>
</g>
</svg>
