<?xml version="1.0" encoding="utf-8"?>
<!-- Generator: Adobe Illustrator 26.3.1, SVG Export Plug-In . SVG Version: 6.00 Build 0)  -->
<svg version="1.1" id="Capa_1" xmlns="http://www.w3.org/2000/svg" xmlns:xlink="http://www.w3.org/1999/xlink" x="0px" y="0px"
	 viewBox="0 0 1000 180" style="enable-background:new 0 0 1000 180;" xml:space="preserve">
<style type="text/css">
	.st0{fill:#B53145;}
</style>
<g>
	<path class="st0" d="M77.8,43.8v29H124v35.4H77.8v64.4H38.4l1.1-128.1L6,44.4l18.7-36h33.4h19.7h62.1v35.4H77.8z"/>
	<path class="st0" d="M237.6,172.6v-0.3l-0.3,0.3v-0.3L149.2,8.4h45.5l42.9,81.8l42.7-81.8h45.5l-88.1,163.9V172.6z"/>
	<path class="st0" d="M423,47.8v124.8h-39.4V47.8h-42.7V8.4h124.8v39.4H423z"/>
	<path class="st0" d="M566.9,172.6v-0.3l-0.3,0.3v-0.3L478.6,8.4H524l42.9,81.8l42.7-81.8h45.5l-88.1,163.9V172.6z"/>
	<path class="st0" d="M771.5,116.5l35.4,56.1h-44.2l-34.3-52.3c-6.8,0-13.1,0-18.7,0v52.3h-39.4V8.4h39.4c4.8,0,15.7,0,39.1,0
		c40.4,0,58.6,30.8,58.6,56.1C807.4,82.9,797.5,107.4,771.5,116.5z M709.6,84.9h38.9c5.1,0,9.6-0.8,12.9-2.3
		c2.3-1.3,4.3-2.5,5.8-4.3c3.5-4.3,4.8-10.1,4.8-13.9c0-4-1.3-9.8-5.3-14.1c-3.8-4.5-9.6-6.6-17.9-6.6h-39.1V84.9z"/>
	<path class="st0" d="M936.7,149.6h-61.9l-11.9,23h-45.5L905.9,8.4L994,172.6h-45.5L936.7,149.6z M920.8,118.8L905.9,90l-15.2,28.8
		H920.8z"/>
</g>
</svg>